<svg width="96" height="96" xmlns="http://www.w3.org/2000/svg" xmlns:xlink="http://www.w3.org/1999/xlink" xml:space="preserve" overflow="hidden"><defs><clipPath id="clip0"><rect x="592" y="312" width="96" height="96"/></clipPath></defs><g clip-path="url(#clip0)" transform="translate(-592 -312)"><path d="M678.447 331.116C678.231 331.042 678.003 331.006 677.775 331.009L677.115 331 602.128 331 601.763 331.008C600.674 330.999 599.784 331.875 599.775 332.964 599.775 332.976 599.775 332.988 599.775 333L599.775 377C599.775 378.105 600.67 379 601.775 379 602.085 379 602.391 378.928 602.669 378.789L614.248 373 624.614 373C624.922 371.604 625.422 370.258 626.1 369L621.7 369 621.7 364.242 628.128 364.242 628.128 366.11C628.446 365.749 628.778 365.402 629.128 365.072L629.128 364.242 630.069 364.242C630.517 363.883 630.984 363.549 631.469 363.242L629.132 363.242 629.132 358.367 635.561 358.367 635.561 361.4C635.891 361.306 636.222 361.215 636.561 361.143L636.561 358.367 642.989 358.367 642.989 361.114C643.329 361.184 643.658 361.28 643.989 361.372L643.989 358.367 650.417 358.367 650.417 363.242 648.191 363.242C648.676 363.549 649.143 363.883 649.591 364.242L650.413 364.242 650.413 364.964C650.762 365.287 651.095 365.625 651.413 365.979L651.413 364.242 657.842 364.242 657.842 369 653.568 369C654.246 370.258 654.746 371.604 655.054 373L665.3 373 676.88 378.789C677.868 379.283 679.069 378.883 679.564 377.895 679.703 377.617 679.775 377.311 679.775 377L679.775 333C679.775 332.154 679.243 331.4 678.447 331.116ZM613.275 349.279C612.968 348.379 612.626 347.479 612.264 346.593L613.275 346.593ZM613.275 345.593 611.853 345.593C611.175 344.019 610.408 342.46 609.553 340.917L613.271 340.917ZM620.7 369 615.775 369 615.775 364.242 620.7 364.242ZM620.7 363.242 615.757 363.242C615.728 361.612 615.609 359.984 615.4 358.367L620.7 358.367ZM620.7 357.367 615.262 357.367C615.016 355.77 614.687 354.187 614.275 352.624L614.275 352.45 620.7 352.45ZM620.7 351.455 614.275 351.455 614.275 346.593 620.7 346.593ZM620.7 345.593 614.275 345.593 614.275 340.917 620.7 340.917ZM628.128 363.242 621.7 363.242 621.7 358.367 628.128 358.367ZM628.128 357.367 621.7 357.367 621.7 352.449 628.128 352.449ZM628.128 351.454 621.7 351.454 621.7 346.593 628.128 346.593ZM628.128 345.593 621.7 345.593 621.7 340.917 628.128 340.917ZM635.557 357.367 629.132 357.367 629.132 352.448 635.561 352.448ZM635.557 351.454 629.132 351.454 629.132 346.593 635.561 346.593ZM635.557 345.593 629.132 345.593 629.132 340.917 635.561 340.917ZM642.985 357.367 636.561 357.367 636.561 352.448 642.989 352.448ZM642.985 351.453 636.561 351.453 636.561 346.593 642.989 346.593ZM642.985 345.593 636.561 345.593 636.561 340.917 642.989 340.917ZM650.413 357.367 643.989 357.367 643.989 352.447 650.417 352.447ZM650.413 351.452 643.989 351.452 643.989 346.592 650.417 346.592ZM650.413 345.593 643.989 345.593 643.989 340.917 650.417 340.917ZM657.842 363.242 651.417 363.242 651.417 358.367 657.846 358.367ZM657.842 357.367 651.417 357.367 651.417 352.446 657.846 352.446ZM657.842 351.451 651.417 351.451 651.417 346.593 657.846 346.593ZM657.842 345.593 651.417 345.593 651.417 340.917 657.846 340.917ZM663.775 369 658.846 369 658.846 364.242 663.775 364.242ZM663.793 363.242 658.846 363.242 658.846 358.367 664.146 358.367C663.938 359.984 663.82 361.612 663.793 363.242ZM665.275 352.624C664.863 354.187 664.534 355.77 664.288 357.367L658.846 357.367 658.846 352.445 665.275 352.445ZM665.275 351.45 658.846 351.45 658.846 346.593 665.275 346.593ZM665.275 345.593 658.846 345.593 658.846 340.917 665.275 340.917ZM666.275 349.279 666.275 346.593 667.286 346.593C666.924 347.484 666.582 348.379 666.275 349.279ZM666.275 345.593 666.275 340.917 669.993 340.917C669.144 342.459 668.378 344.018 667.693 345.593ZM675.775 339.05 675.775 373.764 667.775 369.764 667.775 365.064 673.775 367.692 673.775 366.6 667.775 363.972C667.778 362.293 667.883 360.617 668.089 358.951L673.775 360.494 673.775 359.458 668.227 357.958C668.491 356.183 668.869 354.427 669.358 352.7L673.775 353.368 673.775 352.355 669.647 351.732C670.187 349.981 670.834 348.265 671.583 346.593L673.775 346.593 673.775 345.593 672.051 345.593C672.578 344.485 673.152 343.385 673.775 342.293L673.775 337 672.37 337C671.737 337.965 671.124 338.936 670.558 339.917L666.275 339.917 666.275 337 665.275 337 665.275 339.917 658.846 339.917 658.846 337 657.846 337 657.846 339.917 651.417 339.917 651.417 337 650.417 337 650.417 339.917 643.989 339.917 643.989 337 642.989 337 642.989 339.917 636.561 339.917 636.561 337 635.561 337 635.561 339.917 629.132 339.917 629.132 337 628.132 337 628.132 339.917 621.7 339.917 621.7 337 620.7 337 620.7 339.917 614.275 339.917 614.275 337 613.275 337 613.275 339.917 608.992 339.917C608.426 338.936 607.813 337.965 607.18 337L605.78 337 605.78 342.29C606.402 343.384 606.977 344.484 607.504 345.59L605.775 345.59 605.775 346.59 607.967 346.59C608.716 348.264 609.361 349.982 609.9 351.734L605.772 352.372 605.772 353.382 610.189 352.696C610.683 354.441 611.064 356.217 611.328 358.011L605.772 359.519 605.772 360.555 611.465 359.01C611.67 360.665 611.773 362.332 611.775 364L611.775 364.071 605.775 366.699 605.775 367.791 611.775 365.163 611.775 369.763 603.775 373.763 603.775 335 675.775 335Z" fill="#FFFFFF"/><path d="M639.834 362.793C632.323 362.793 626.234 368.882 626.234 376.393 626.234 383.904 632.323 389.993 639.834 389.993 647.345 389.993 653.434 383.904 653.434 376.393 653.434 368.882 647.345 362.793 639.834 362.793ZM651.407 377C651.305 379.046 650.659 381.027 649.537 382.74L649.315 381.861 644.682 383.1 642.073 387.123 642.822 387.595C640.863 388.136 638.793 388.136 636.834 387.595L637.578 387.126 634.969 383.1 630.336 381.861 630.119 382.72C629.008 381.017 628.367 379.051 628.262 377.02L628.947 377.59 631.967 373.866 631.713 369.077 630.798 369.138C632.088 367.538 633.779 366.308 635.698 365.573L635.353 366.435 639.829 368.156 644.3 366.432 643.952 365.563C645.879 366.297 647.576 367.53 648.87 369.136L647.937 369.074 647.683 373.863 650.703 377.587Z" fill="#FFFFFF"/><path d="M635.35 375.727 637.071 380.892 639.826 380.892 642.58 380.892 644.301 375.727 639.826 372.285 635.35 375.727Z" fill="#FFFFFF"/></g></svg>