<svg width="96" height="96" xmlns="http://www.w3.org/2000/svg" xmlns:xlink="http://www.w3.org/1999/xlink" xml:space="preserve" overflow="hidden"><defs><clipPath id="clip0"><rect x="592" y="312" width="96" height="96"/></clipPath></defs><g clip-path="url(#clip0)" transform="translate(-592 -312)"><path d="M628.315 403 602 392.1 602 326.999 628.315 316.099 628.315 403Z" fill="#FFFFFF"/><path d="M655.068 337.866 655.068 350.366 632.315 350.366 632.315 366.366 655.068 366.366 655.068 378.866 679.068 358.366 655.068 337.866Z" fill="#FFFFFF"/><path d="M643.068 346.366 649.068 346.366 649.068 326.366 632.315 326.366 632.315 332.366 643.068 332.366 643.068 346.366Z" fill="#FFFFFF"/><path d="M643.068 370.366 643.068 386.366 632.315 386.366 632.315 392.366 649.068 392.366 649.068 370.366 643.068 370.366Z" fill="#FFFFFF"/></g></svg>